<?xml version="1.0" encoding="utf-8"?>
<!-- Generator: Adobe Illustrator 26.5.0, SVG Export Plug-In . SVG Version: 6.00 Build 0)  -->
<svg version="1.1" id="Capa_1" xmlns="http://www.w3.org/2000/svg" xmlns:xlink="http://www.w3.org/1999/xlink" x="0px" y="0px"
	 viewBox="0 0 800 800" style="enable-background:new 0 0 800 800;" xml:space="preserve">
<path d="M145.8,338c-30,0-54.3,24.3-54.3,54.3s24.3,54.3,54.3,54.3c30,0,54.3-24.3,54.3-54.3C200.1,362.3,175.8,338,145.8,338z"/>
<path d="M145.8,602.3c-30,0-54.3,24.3-54.3,54.3c0,30,24.3,54.3,54.3,54.3c30,0,54.3-24.3,54.3-54.3
	C200.1,626.6,175.8,602.3,145.8,602.3z"/>
<path d="M145.8,85.8c-30,0-54.3,24.3-54.3,54.3c0,30,24.3,54.3,54.3,54.3c30,0,54.3-24.3,54.3-54.3
	C200.1,110.1,175.8,85.8,145.8,85.8z"/>
<path d="M647.1,338c-30,0-54.3,24.3-54.3,54.3s24.3,54.3,54.3,54.3c30,0,54.3-24.3,54.3-54.3C701.4,362.3,677.1,338,647.1,338z"/>
<path d="M647.1,85.8c-30,0-54.3,24.3-54.3,54.3c0,30,24.3,54.3,54.3,54.3c30,0,54.3-24.3,54.3-54.3
	C701.4,110.1,677.1,85.8,647.1,85.8z"/>
<path d="M396.5,602.3c-30,0-54.3,24.3-54.3,54.3c0,30,24.3,54.3,54.3,54.3c30,0,54.3-24.3,54.3-54.3
	C450.8,626.6,426.5,602.3,396.5,602.3z"/>
<path d="M647.1,602.3c-30,0-54.3,24.3-54.3,54.3c0,30,24.3,54.3,54.3,54.3c30,0,54.3-24.3,54.3-54.3
	C701.4,626.6,677.1,602.3,647.1,602.3z"/>
<path d="M396.5,338c-30,0-54.3,24.3-54.3,54.3s24.3,54.3,54.3,54.3c30,0,54.3-24.3,54.3-54.3C450.8,362.3,426.5,338,396.5,338z"/>
<path d="M396.5,85.8c-30,0-54.3,24.3-54.3,54.3c0,30,24.3,54.3,54.3,54.3c30,0,54.3-24.3,54.3-54.3
	C450.8,110.1,426.5,85.8,396.5,85.8z"/>
</svg>
